<svg width="20" height="15" viewBox="0 0 20 15" fill="none" xmlns="http://www.w3.org/2000/svg">
<g id="Capa_1" clip-path="url(#clip0_268_8)">
<path id="Vector" d="M1.91975 4.62362C2.17266 4.79415 2.93532 5.30013 4.20773 6.14157C5.48013 6.98301 6.45466 7.63116 7.13172 8.08565C7.20599 8.13528 7.36431 8.24386 7.60589 8.41066C7.84786 8.57782 8.04879 8.71253 8.20867 8.81552C8.36855 8.9185 8.56205 9.03381 8.78916 9.16179C9.01628 9.28941 9.23011 9.38568 9.43103 9.44911C9.63196 9.5133 9.81803 9.54501 9.98886 9.54501H10.0115C10.1827 9.54501 10.3688 9.5133 10.5697 9.44911C10.7707 9.38568 10.9845 9.28941 11.2116 9.16179C11.4383 9.03381 11.6318 8.9185 11.7921 8.81552C11.952 8.71253 12.1529 8.57745 12.3949 8.41066C12.6365 8.24349 12.7948 8.13528 12.8695 8.08565C13.5539 7.63116 15.295 6.47703 18.0928 4.62325C18.6357 4.2613 19.0896 3.82435 19.4543 3.31277C19.819 2.80156 20.0012 2.26535 20.0012 1.70452C20.0012 1.23585 19.8245 0.834349 19.4707 0.500759C19.1173 0.166795 18.6987 0 18.2151 0H1.78567C1.2126 0 0.772042 0.184706 0.463225 0.553745C0.154408 0.923157 0 1.38474 0 1.93885C0 2.38625 0.204836 2.87134 0.613725 3.39299C1.023 3.91502 1.45808 4.32511 1.91936 4.62362H1.91975Z" fill="white"/>
<path id="Vector_2" d="M18.8835 5.76319C16.4434 7.33972 14.5905 8.56513 13.3255 9.43866C12.9014 9.7368 12.5574 9.96964 12.2932 10.1364C12.0289 10.3032 11.6775 10.4738 11.2385 10.6476C10.7995 10.8219 10.3906 10.9085 10.011 10.9085H9.98837C9.6088 10.9085 9.19952 10.8215 8.76092 10.6476C8.32193 10.4738 7.97051 10.3032 7.70625 10.1364C7.442 9.96964 7.098 9.7368 6.67387 9.43866C5.66923 8.73565 3.82024 7.51025 1.12689 5.76319C0.702754 5.49341 0.327092 5.18445 -0.000488281 4.8363V13.2951C-0.000488281 13.7641 0.174247 14.1653 0.52411 14.4992C0.873581 14.8332 1.2942 15 1.78518 15H18.2138C18.7048 15 19.1254 14.8332 19.4749 14.4992C19.8248 14.1653 19.9995 13.7645 19.9995 13.2951V4.8363C19.6794 5.17698 19.3076 5.48632 18.8835 5.76319Z" fill="white"/>
</g>
<defs>
<clipPath id="clip0_268_8">
<rect width="20" height="15" fill="white"/>
</clipPath>
</defs>
</svg>
