<svg width="25" height="25" viewBox="0 0 25 25" fill="none" xmlns="http://www.w3.org/2000/svg">
<g id="Facebook" clip-path="url(#clip0_268_40)">
<path id="Vector" d="M22.9453 0H2.40999C1.27941 0 0.355225 0.924181 0.355225 2.05476V22.5931C0.355225 23.7206 1.27941 24.6479 2.40999 24.6479H22.9484C24.0789 24.6479 25.0031 23.7237 25.0031 22.5931V2.05476C25.0031 0.924181 24.0789 0 22.9484 0H22.9453ZM22.9453 22.5901H14.7293V14.3741H19.8647V12.3193H14.7293V10.2646C14.7293 8.56408 16.1094 7.18397 17.8099 7.18397H19.8647V5.1292H17.8099C14.9758 5.1292 12.6746 7.42733 12.6746 10.2646V12.3193H10.6198V14.3741H12.6746V22.5901H2.40999V2.05476H22.9484V22.5931L22.9453 22.5901Z" fill="white"/>
</g>
<defs>
<clipPath id="clip0_268_40">
<rect width="24.6448" height="24.6448" fill="white" transform="translate(0.355225)"/>
</clipPath>
</defs>
</svg>
