<svg width="26" height="25" viewBox="0 0 26 25" fill="none" xmlns="http://www.w3.org/2000/svg">
<g id="Instagram" clip-path="url(#clip0_268_36)">
<path id="Vector" d="M19.1612 0H6.83882C3.45015 0 0.677612 2.77254 0.677612 6.1612V18.4836C0.677612 21.8723 3.45015 24.6448 6.83882 24.6448H19.1612C22.5499 24.6448 25.3224 21.8723 25.3224 18.4836V6.1612C25.3224 2.77254 22.5499 0 19.1612 0ZM23.2677 18.4836C23.2677 20.7479 21.4255 22.5901 19.1612 22.5901H6.83882C4.57457 22.5901 2.73237 20.7479 2.73237 18.4836V6.1612C2.73237 3.89696 4.57457 2.05476 6.83882 2.05476H19.1612C21.4255 2.05476 23.2677 3.89696 23.2677 6.1612V18.4836Z" fill="white"/>
<path id="Vector_2" d="M19.6757 7.18705C20.5264 7.18705 21.216 6.49743 21.216 5.64675C21.216 4.79606 20.5264 4.10645 19.6757 4.10645C18.825 4.10645 18.1354 4.79606 18.1354 5.64675C18.1354 6.49743 18.825 7.18705 19.6757 7.18705Z" fill="white"/>
<path id="Vector_3" d="M13.0001 6.16119C9.59601 6.16119 6.83887 8.91833 6.83887 12.3224C6.83887 15.7265 9.59601 18.4836 13.0001 18.4836C16.4041 18.4836 19.1613 15.7234 19.1613 12.3224C19.1613 8.92141 16.4011 6.16119 13.0001 6.16119ZM13.0001 16.4319C10.7327 16.4319 8.89363 14.5928 8.89363 12.3224C8.89363 10.052 10.7327 8.21596 13.0001 8.21596C15.2674 8.21596 17.1065 10.0551 17.1065 12.3224C17.1065 14.5897 15.2674 16.4319 13.0001 16.4319Z" fill="white"/>
</g>
<defs>
<clipPath id="clip0_268_36">
<rect width="24.6448" height="24.6448" fill="white" transform="translate(0.677612)"/>
</clipPath>
</defs>
</svg>
