<svg width="25" height="25" viewBox="0 0 25 25" fill="none" xmlns="http://www.w3.org/2000/svg">
<g id="Linked In" clip-path="url(#clip0_268_31)">
<path id="Vector" d="M22.5901 0H2.05476C0.924181 0 0 0.924181 0 2.05476V22.5931C0 23.7206 0.924181 24.6479 2.05476 24.6479H22.5931C23.7237 24.6479 24.6479 23.7237 24.6479 22.5931V2.05476C24.6479 0.924181 23.7237 0 22.5931 0H22.5901ZM22.5901 22.5901H2.05476V2.05476H22.5931V22.5931L22.5901 22.5901Z" fill="white"/>
<path id="Vector_2" d="M8.21602 10.2676H6.16125V18.4836H8.21602V10.2676Z" fill="white"/>
<path id="Vector_3" d="M7.18703 9.2418C8.03771 9.2418 8.72733 8.55218 8.72733 7.70149C8.72733 6.85081 8.03771 6.16119 7.18703 6.16119C6.33634 6.16119 5.64673 6.85081 5.64673 7.70149C5.64673 8.55218 6.33634 9.2418 7.18703 9.2418Z" fill="white"/>
<path id="Vector_4" d="M12.3224 14.3772C12.3224 13.2435 13.2405 12.3224 14.3772 12.3224C15.5139 12.3224 16.432 13.2404 16.432 14.3772V18.4836H18.4867V14.3772C18.4867 12.1098 16.6476 10.2707 14.3803 10.2707C13.6286 10.2707 12.9324 10.4864 12.3255 10.8406V10.357H10.2708V18.4867H12.3255V14.3802L12.3224 14.3772Z" fill="white"/>
</g>
<defs>
<clipPath id="clip0_268_31">
<rect width="24.6448" height="24.6448" fill="white"/>
</clipPath>
</defs>
</svg>
