<svg width="20" height="21" viewBox="0 0 20 21" fill="none" xmlns="http://www.w3.org/2000/svg">
<g id="Phone" clip-path="url(#clip0_268_6)">
<path id="Vector" d="M15.0905 21.0002C14.602 20.8897 14.107 20.8045 13.6267 20.6637C12.6364 20.374 11.7141 19.9087 10.8271 19.3714C8.31066 17.8479 6.16032 15.8642 4.25205 13.5821C3.01418 12.1012 1.93264 10.5063 1.09808 8.73733C0.584505 7.64891 0.180213 6.51888 0.0420179 5.30462C-0.0447213 4.54236 -0.0211988 3.78473 0.336049 3.0872C0.448271 2.86736 0.594796 2.65779 0.760434 2.47904C1.34164 1.85085 1.94391 1.24423 2.52707 0.618604C3.33664 -0.249462 4.59313 -0.160087 5.35761 0.620145C6.26862 1.55036 7.16443 2.4965 8.05682 3.44675C8.84286 4.28349 8.84923 5.53782 8.06858 6.3011C7.90196 6.46392 7.6883 6.59336 7.47512 6.68171C6.9297 6.9072 6.49894 7.25032 6.26176 7.82612C6.10347 8.20981 6.0824 8.60121 6.18531 9.00648C6.47591 10.1468 7.09386 11.0852 7.83629 11.943C8.60911 12.8357 9.48385 13.597 10.5247 14.1281C10.9834 14.3618 11.4553 14.5698 11.9846 14.4974C12.702 14.3993 13.2484 14.0366 13.5322 13.3196C13.7076 12.8758 13.9149 12.4695 14.3182 12.2045C15.0739 11.7088 16.0055 11.7987 16.6724 12.4798C17.6114 13.4382 18.541 14.408 19.4535 15.3942C20.2013 16.2022 20.1734 17.4909 19.4152 18.2994C18.8164 18.9379 18.2068 19.5661 17.604 20.2004C17.1762 20.6499 16.6509 20.8779 16.0594 20.9622C16.0094 20.9694 15.9614 20.9878 15.9123 21.0012H15.0905V21.0002Z" fill="white"/>
</g>
<defs>
<clipPath id="clip0_268_6">
<rect width="20" height="21" fill="white"/>
</clipPath>
</defs>
</svg>
